#!OML:ASF H:\MichaelJackson\Top Level 1\Subject 1\Session 1\male.ASF
:FULLY-SPECIFIED
:DEGREES
687
root 2.58067 16.0238 33.4636 -355.952 3.37197 6.51105
lowerback -1.3635 -2.06449 -3.35771
upperback -1.39422 -2.7583 -6.1231
thorax -0.818005 -1.38532 -4.4542
lowerneck -6.29628 -4.27298 -1.85927
upperneck 5.28662 -5.87967 4.78483
head 3.02994 -2.79423 1.60868
rclavicle 4.36394e-015 -4.77083e-015
rhumerus -63.9955 33.0966 -96.497
rradius 121.33
rwrist -10.2084
rhand 20.6171 -10.348
rfingers 7.12502
rthumb 45.1095 -393.804
lclavicle 4.36394e-015 -4.77083e-015
lhumerus -53.0251 -39.1454 108.377
lradius 59.0815
lwrist 27.3414
lhand 35.0994 34.033
lfingers 7.12502
lthumb 58.2237 49.552
rfemur -20.151 0.74222 -12.2047
rtibia 38.3784
rfoot 2.23451 -15.4977
rtoes -40.015
lfemur -10.7043 -8.52738 -1.43248
ltibia 22.4843
lfoot -13.3566 -46.3514
ltoes 17.293
688
root 2.50963 15.9765 33.4893 -355.517 3.19049 6.43849
lowerback -1.75436 -2.45719 -3.10879
upperback -1.53405 -3.2696 -6.18269
thorax -0.788218 -1.64647 -4.67418
lowerneck -6.37107 -3.92868 -1.56596
upperneck 5.23187 -5.43515 4.69005
head 2.99394 -2.57041 1.54685
rclavicle 4.22417e-016 -2.70347e-014
rhumerus -62.9618 35.9785 -93.6165
rradius 123.38
rwrist -10.2772
rhand 21.9037 -8.47064
rfingers 7.12502
rthumb 46.3042 -391.437
lclavicle 4.22417e-016 -2.70347e-014
lhumerus -54.0891 -38.8609 109.263
lradius 58.5341
lwrist 27.974
lhand 35.0098 35.0447
lfingers 7.12502
lthumb 58.1457 50.6346
rfemur -20.2723 0.0808232 -12.1711
rtibia 38.2805
rfoot 0.167386 -14.7173
rtoes -40.5791
lfemur -9.93194 -10.1071 -0.544076
ltibia 20.0638
lfoot -13.975 -46.9136
ltoes 17.4832
689
root 2.444 15.9287 33.5089 -355.152 2.92099 6.39164
lowerback -2.03204 -2.82852 -2.87448
upperback -1.65509 -3.76069 -6.21735
thorax -0.804438 -1.89757 -4.8578
lowerneck -6.41728 -3.57342 -1.2917
upperneck 5.14566 -4.97333 4.59266
head 2.94392 -2.33936 1.48862
rclavicle -1.35546e-014 -2.06736e-014
rhumerus -60.8053 38.6107 -89.174
rradius 125.008
rwrist -11.0541
rhand 22.8729 -6.43215
rfingers 7.12502
rthumb 47.2014 -389.009
lclavicle -1.35546e-014 -2.06736e-014
lhumerus -55.093 -38.5515 110.145
lradius 58.0668
lwrist 28.3022
lhand 34.9239 35.7821
lfingers 7.12502
lthumb 58.0709 51.4397
rfemur -20.6369 -0.950878 -12.1056
rtibia 38.4574
rfoot -1.72975 -13.6356
rtoes -40.6849
lfemur -9.17861 -10.9854 0.0542108
ltibia 18.1369
lfoot -15.8279 -46.3499
ltoes 15.7984
690
root 2.3834 15.8804 33.5222 -354.861 2.48345 6.41544
lowerback -2.1936 -3.14645 -2.71311
upperback -1.75903 -4.18731 -6.24788
thorax -0.863025 -2.11581 -4.99095
lowerneck -6.44919 -3.21161 -1.02798
upperneck 5.04468 -4.50163 4.4956
head 2.88836 -2.10405 1.43265
rclavicle 3.60981e-014 6.36111e-014
rhumerus -57.2927 40.8245 -83.0783
rradius 126.024
rwrist -13.0101
rhand 23.6002 -4.70186
rfingers 7.12502
rthumb 47.873 -386.974
lclavicle 3.60981e-014 6.36111e-014
lhumerus -55.9616 -38.1657 110.91
lradius 57.6728
lwrist 28.2133
lhand 35.0482 36.0669
lfingers 7.12502
lthumb 58.1792 51.6264
rfemur -21.2783 -2.23478 -12.0435
rtibia 38.9132
rfoot -3.44574 -12.337
rtoes -40.4152
lfemur -8.39172 -11.1925 0.307515
ltibia 16.7088
lfoot -18.8819 -44.5306
ltoes 12.053
691
root 2.32704 15.8307 33.5288 -354.654 1.83062 6.53406
lowerback -2.24471 -3.39456 -2.66579
upperback -1.84199 -4.5253 -6.28948
thorax -0.950645 -2.28842 -5.06488
lowerneck -6.48824 -2.84466 -0.760329
upperneck 4.94823 -4.02406 4.39851
head 2.83754 -1.86566 1.37576
rclavicle -1.19768e-014 -1.74931e-014
rhumerus -52.3708 42.4544 -75.4557
rradius 126.237
rwrist -16.363
rhand 24.1982 -3.72229
rfingers 7.12502
rthumb 48.424 -385.735
lclavicle -1.19768e-014 -1.74931e-014
lhumerus -56.6422 -37.696 111.464
lradius 57.339
lwrist 27.7111
lhand 35.4741 35.7338
lfingers 7.12502
lthumb 58.5494 50.9518
rfemur -22.1823 -3.59953 -12.0054
rtibia 39.6165
rfoot -4.99593 -10.9706
rtoes -39.8946
lfemur -7.52395 -10.8686 0.214275
ltibia 15.7239
lfoot -22.7407 -41.2555
ltoes 6.2727
692
root 2.27404 15.7789 33.5294 -354.538 0.960864 6.76114
lowerback -2.20311 -3.56686 -2.7521
upperback -1.89735 -4.76457 -6.36182
thorax -1.04769 -2.40987 -5.08976
lowerneck -6.52661 -2.47913 -0.473214
upperneck 4.85957 -3.55151 4.30949
head 2.79129 -1.62908 1.31755
rclavicle -4.41675e-015 1.59028e-014
rhumerus -46.304 43.3439 -66.7309
rradius 125.496
rwrist -20.9198
rhand 24.8009 -3.71465
rfingers 7.12502
rthumb 48.9783 -385.458
lclavicle -4.41675e-015 1.59028e-014
lhumerus -57.137 -37.1724 111.766
lradius 57.0593
lwrist 26.9143
lhand 36.1483 34.7591
lfingers 7.12502
lthumb 59.133 49.4185
rfemur -23.2818 -4.87257 -12.0147
rtibia 40.503
rfoot -6.41541 -9.67135
rtoes -39.2014
lfemur -6.54711 -10.281 -0.191283
ltibia 15.0804
lfoot -26.6981 -36.4024
ltoes -1.23073
693
root 2.22379 15.7251 33.5246 -354.519 -0.0692132 7.07741
lowerback -2.08693 -3.67633 -2.95194
upperback -1.91351 -4.92129 -6.47115
thorax -1.13412 -2.4883 -5.08521
lowerneck -6.57504 -2.12114 -0.156354
upperneck 4.77912 -3.09395 4.23893
head 2.7521 -1.39863 1.25913
rclavicle -3.2618e-014 -1.90833e-014
rhumerus -39.5856 43.4535 -57.5237
rradius 123.71
rwrist -26.1294
rhand 25.4067 -4.6959
rfingers 7.12502
rthumb 49.5343 -386.16
lclavicle -3.2618e-014 -1.90833e-014
lhumerus -57.4725 -36.661 111.828
lradius 56.8333
lwrist 26.0197
lhand 36.8752 33.257
lfingers 7.12502
lthumb 59.7583 47.2886
rfemur -24.4727 -5.91854 -12.0714
rtibia 41.4874
rfoot -7.70007 -8.546
rtoes -38.5663
lfemur -5.47019 -9.83684 -0.819668
ltibia 14.658
lfoot -29.8979 -30.1356
ltoes -9.25866
694
root 2.17554 15.6703 33.5157 -354.59 -1.15716 7.44936
lowerback -1.91512 -3.74467 -3.23127
upperback -1.88696 -5.02405 -6.61282
thorax -1.19981 -2.53841 -5.06735
lowerneck -6.60532 -1.78334 0.188626
upperneck 4.68704 -2.66779 4.19907
head 2.70862 -1.18279 1.20427
rclavicle 1.2424e-014 -1.90833e-014
rhumerus -32.8123 42.8641 -48.4781
rradius 120.859
rwrist -31.2224
rhand 25.915 -6.43602
rfingers 7.12502
rthumb 49.9998 -387.659
lclavicle 1.2424e-014 -1.90833e-014
lhumerus -57.7092 -36.2506 111.731
lradius 56.6621
lwrist 25.3155
lhand 37.3448 31.5193
lfingers 7.12502
lthumb 60.1601 45.1304
rfemur -25.6367 -6.66999 -12.1711
rtibia 42.4882
rfoot -8.88974 -7.66107
rtoes -38.0341
lfemur -4.33139 -9.9072 -1.57717
ltibia 14.3466
lfoot -31.7762 -22.9847
ltoes -16.4549
695
root 2.1289 15.6159 33.5039 -354.734 -2.18289 7.82617
lowerback -1.72409 -3.7974 -3.53446
upperback -1.80595 -5.10417 -6.77263
thorax -1.21771 -2.57669 -5.05582
lowerneck -6.60766 -1.48058 0.557195
upperneck 4.56692 -2.29134 4.19002
head 2.65374 -0.991236 1.15291
rclavicle -7.57494e-014 -6.36111e-014
rhumerus -26.4212 41.7215 -40.0617
rradius 116.958
rwrist -35.4815
rhand 26.2492 -8.58398
rfingers 7.12502
rthumb 50.3055 -389.645
lclavicle -7.57494e-014 -6.36111e-014
lhumerus -57.8869 -36.0372 111.565
lradius 56.5329
lwrist 25.012
lhand 37.4038 29.8891
lfingers 7.12502
lthumb 60.2104 43.4467
rfemur -26.6718 -7.14195 -12.292
rtibia 43.4417
rfoot -10.0014 -7.0245
rtoes -37.6164
lfemur -3.19944 -10.6491 -2.37229
ltibia 14.078
lfoot -32.3292 -15.6896
ltoes -22.1453
696
root 2.08372 15.5636 33.4907 -354.917 -3.04257 8.15788
lowerback -1.53183 -3.85547 -3.80546
upperback -1.68271 -5.18928 -6.93184
thorax -1.19529 -2.61786 -5.06321
lowerneck -6.5803 -1.22123 0.934538
upperneck 4.43504 -1.97493 4.21874
head 2.59284 -0.829043 1.10949
rclavicle 6.28657e-015 6.04305e-014
rhumerus -20.689 40.1805 -32.5528
rradius 112.042
rwrist -38.3567
rhand 26.4627 -10.7427
rfingers 7.12502
rthumb 50.5006 -391.699
lclavicle 6.28657e-015 6.04305e-014
lhumerus -58.0591 -36.0663 111.432
lradius 56.4346
lwrist 25.2517
lhand 37.0537 28.662
lfingers 7.12502
lthumb 59.9113 42.5351
rfemur -27.5208 -7.41822 -12.4025
rtibia 44.3132
rfoot -11.0305 -6.59386
rtoes -37.3489
lfemur -2.16378 -12.0286 -3.11603
ltibia 13.8378
lfoot -31.8983 -8.91195
ltoes -26.2767
697
root 2.0401 15.5151 33.4776 -355.107 -3.6697 8.38808
lowerback -1.35629 -3.93212 -3.98994
upperback -1.52677 -5.29575 -7.06342
thorax -1.13549 -2.67067 -5.09222
lowerneck -6.51574 -1.01048 1.30841
upperneck 4.29503 -1.72301 4.27448
head 2.52531 -0.69914 1.07248
rclavicle 6.97734e-014 -2.22639e-014
rhumerus -15.6743 38.3545 -26.0374
rradius 106.127
rwrist -39.6082
rhand 26.3063 -12.6345
rfingers 7.12502
rthumb 50.3577 -393.667
lclavicle 6.97734e-014 -2.22639e-014
lhumerus -58.2424 -36.334 111.396
lradius 56.3546
lwrist 26.0526
lhand 36.359 28.084
lfingers 7.12502
lthumb 59.3146 42.5642
rfemur -28.1668 -7.61299 -12.4468
rtibia 45.0953
rfoot -11.9729 -6.30007
rtoes -37.2017
lfemur -1.295 -13.8503 -3.70715
ltibia 13.6429
lfoot -30.9328 -3.10515
ltoes -29.1081
698
root 1.99799 15.4721 33.4656 -355.265 -4.04271 8.47675
lowerback -1.21257 -4.02975 -4.0548
upperback -1.36005 -5.42657 -7.14262
thorax -1.05347 -2.73666 -5.13531
lowerneck -6.42906 -0.849258 1.65915
upperneck 4.18517 -1.53622 4.35054
head 2.46646 -0.601469 1.04333
rclavicle -5.16592e-014 1.74931e-014
rhumerus -11.3402 36.3005 -20.5206
rradius 99.2263
rwrist -39.2535
rhand 25.39 -14.0346
rfingers 7.12502
rthumb 49.519 -395.506
lclavicle -5.16592e-014 1.74931e-014
lhumerus -58.4387 -36.7792 111.487
lradius 56.2752
lwrist 27.3056
lhand 35.4205 28.1858
lfingers 7.12502
lthumb 58.5029 43.4473
rfemur -28.641 -7.84217 -12.3684
rtibia 45.799
rfoot -12.8122 -6.06631
rtoes -37.1279
lfemur -0.654167 -15.7389 -4.04682
ltibia 13.5121
lfoot -29.8451 1.45604
ltoes -30.9766
699
root 1.95722 15.436 33.4556 -355.368 -4.18013 8.40496
lowerback -1.10614 -4.14282 -3.99513
upperback -1.19797 -5.57449 -7.1477
thorax -0.960377 -2.81169 -5.17205
lowerneck -6.34942 -0.734401 1.96118
upperneck 4.13569 -1.40989 4.43917
head 2.43137 -0.533186 1.02443
rclavicle -2.24627e-014 5.725e-014
rhumerus -7.57187 34.0087 -15.9407
rradius 91.3857
rwrist -37.5614
rhand 23.2373 -14.9062
rfingers 7.12502
rthumb 47.5381 -397.332
lclavicle -2.24627e-014 5.725e-014
lhumerus -58.6066 -37.2951 111.679
lradius 56.1755
lwrist 28.7973
lhand 34.3733 28.8117
lfingers 7.12502
lthumb 57.5899 44.8955
rfemur -28.9918 -8.194 -12.1264
rtibia 46.4416
rfoot -13.5418 -5.8155
rtoes -37.0622
lfemur -0.266136 -17.2942 -4.06352
ltibia 13.4454
lfoot -28.9002 4.65472
ltoes -32.1274
